# xmcd
#
# Track frame offsets: 
#        150
#        28199
#        39750
#        53773
#        66517
#        79605
#        93361
#        106077
#        119003
#        133310
#        144349
#        155229
#        167321
#        182313
#        195235
#        207952
#        220667
#        231582
#
# Disc length: 3245 seconds
#
# Revision: 1
# Processed by: cddbd v1.5.2PL0 Copyright (c) Steve Scherf et al.
# Submitted via: ExactAudioCopy v1.0b1
#
DISCID=f50cab12
DTITLE=B.B. King - The Great BB King (1960)
DYEAR=1960
DGENRE=Blues
TTITLE0=Sweet Sixteen (Parts 1 and 2) (mono)
TTITLE1=Quit My Baby (mono)
TTITLE2=I Was Blind (mono)
TTITLE3=What Can I Do (mono)
TTITLE4=Some Day Somewhere (alt) (mono)
TTITLE5=Sneakin' Around (mono)
TTITLE6=Ten Long Years (mono)
TTITLE7=Be Careful With A Fool (mono)
TTITLE8=Whole Lotta Love (mono)
TTITLE9=Days Of Old (alt) (mono)
TTITLE10=Young Dreamers (take 1) (stereo)
TTITLE11=Bim Bam (mono)
TTITLE12=Trouble In Mind (alt - take 1) (mono)
TTITLE13=Down Now (alt - take 1) (stereo)
TTITLE14=Broke And Hungry (take 2) (stereo)
TTITLE15=Shotgun Blues (stereo)
TTITLE16=What A Way To Spend The Night (take 1) (stereo)
TTITLE17=A Woman Don't Care (alt - take 4) (stereo)
EXTD=YEAR: 1960
EXTT0=
EXTT1=
EXTT2=
EXTT3=
EXTT4=
EXTT5=
EXTT6=
EXTT7=
EXTT8=
EXTT9=
EXTT10=
EXTT11=
EXTT12=
EXTT13=
EXTT14=
EXTT15=
EXTT16=
EXTT17=
PLAYORDER=
